<svg width="31" height="31" viewBox="0 0 31 31" fill="none" xmlns="http://www.w3.org/2000/svg">
<g opacity="0.9" clip-path="url(#clip0_1_552)">
<path d="M27.4467 23.4654C26.993 24.5135 26.456 25.4783 25.8338 26.3653C24.9857 27.5746 24.2913 28.4116 23.7561 28.8764C22.9265 29.6393 22.0377 30.03 21.0858 30.0523C20.4025 30.0523 19.5785 29.8578 18.6192 29.4634C17.6569 29.0708 16.7724 28.8764 15.9638 28.8764C15.1157 28.8764 14.206 29.0708 13.2331 29.4634C12.2587 29.8578 11.4737 30.0634 10.8736 30.0837C9.96081 30.1226 9.05103 29.7208 8.14291 28.8764C7.5633 28.3708 6.83832 27.5042 5.96983 26.2764C5.03801 24.9654 4.27192 23.445 3.67176 21.7118C3.029 19.8396 2.70679 18.0267 2.70679 16.2716C2.70679 14.2611 3.14122 12.527 4.01137 11.0739C4.69524 9.90675 5.60503 8.98604 6.74369 8.31013C7.88236 7.63423 9.11269 7.28979 10.4377 7.26776C11.1626 7.26776 12.1133 7.49201 13.2948 7.93274C14.4729 8.37495 15.2294 8.5992 15.561 8.5992C15.809 8.5992 16.6493 8.33698 18.0739 7.81422C19.4211 7.32942 20.5581 7.12869 21.4895 7.20776C24.0135 7.41146 25.9097 8.40643 27.1708 10.199C24.9135 11.5667 23.7969 13.4824 23.8191 15.9399C23.8394 17.8541 24.5339 19.447 25.8986 20.7118C26.5171 21.2988 27.2079 21.7525 27.9763 22.0747C27.8097 22.558 27.6338 23.021 27.4467 23.4654ZM21.658 0.686475C21.658 2.18682 21.1099 3.58768 20.0173 4.88431C18.6989 6.42575 17.1041 7.31646 15.3747 7.17591C15.3527 6.99591 15.3399 6.80648 15.3399 6.60741C15.3399 5.16708 15.9669 3.62564 17.0804 2.36531C17.6363 1.72718 18.3433 1.19659 19.2007 0.773323C20.0562 0.356373 20.8655 0.12579 21.6266 0.0863037C21.6488 0.286876 21.658 0.487461 21.658 0.686455V0.686475Z" fill="black"/>
</g>
<defs>
<clipPath id="clip0_1_552">
<rect width="30" height="30" fill="white" transform="translate(0.206787 0.0859375)"/>
</clipPath>
</defs>
</svg>
