<svg width="31" height="31" viewBox="0 0 31 31" fill="none" xmlns="http://www.w3.org/2000/svg">
<g opacity="0.9" clip-path="url(#clip0_1_550)">
<path d="M30.2068 15.0859C30.2068 6.80174 23.491 0.0859375 15.2068 0.0859375C6.92259 0.0859375 0.206787 6.80174 0.206787 15.0859C0.206787 22.1203 5.04999 28.0231 11.5834 29.6443V19.6699H8.49039V15.0859H11.5834V13.1107C11.5834 8.00534 13.894 5.63894 18.9064 5.63894C19.8568 5.63894 21.4966 5.82554 22.1674 6.01154V10.1665C21.8134 10.1293 21.1984 10.1107 20.4346 10.1107C17.9752 10.1107 17.0248 11.0425 17.0248 13.4647V15.0859H21.9244L21.0826 19.6699H17.0248V29.9761C24.4522 29.0791 30.2074 22.7551 30.2074 15.0859H30.2068Z" fill="#0866FF"/>
<path d="M21.0819 19.6699L21.9237 15.0859H17.0241V13.4647C17.0241 11.0425 17.9745 10.1107 20.4339 10.1107C21.1977 10.1107 21.8127 10.1293 22.1667 10.1665V6.01152C21.4959 5.82492 19.8561 5.63892 18.9057 5.63892C13.8933 5.63892 11.5827 8.00532 11.5827 13.1107V15.0859H8.48975V19.6699H11.5827V29.6443C12.7431 29.9323 13.9569 30.0859 15.2061 30.0859C15.8211 30.0859 16.4277 30.0481 17.0235 29.9761V19.6699H21.0813H21.0819Z" fill="white"/>
</g>
<defs>
<clipPath id="clip0_1_550">
<rect width="30" height="30" fill="white" transform="translate(0.206787 0.0859375)"/>
</clipPath>
</defs>
</svg>
