<svg width="115" height="50" viewBox="0 0 115 50" fill="none" xmlns="http://www.w3.org/2000/svg">
<mask id="path-1-inside-1_1_509" fill="white">
<path d="M0.270417 13.2953L11.7404 14.4074C17.2242 14.9391 21.2386 19.8156 20.7069 25.2994L9.23695 24.1872C3.75318 23.6555 -0.261278 18.779 0.270417 13.2953Z"/>
<path d="M0.967619 6.10509L5.94388 6.58758C15.014 7.467 21.654 15.5327 20.7745 24.6029L20.7069 25.2994L15.7307 24.8168C6.66058 23.9374 0.0206711 15.8717 0.900096 6.80151L0.967619 6.10509Z"/>
<path d="M13.5169 24.6022L12.4048 36.0722C11.8731 41.556 6.99663 45.5704 1.51285 45.0387L2.62496 33.5687C3.15666 28.085 8.03316 24.0705 13.5169 24.6022Z"/>
<path d="M20.7069 25.2994L20.2244 30.2756C19.345 39.3458 11.2793 45.9857 2.20912 45.1062L1.51285 45.0387L1.99519 40.0625C2.87462 30.9923 10.9404 24.3524 20.0105 25.2318L20.7069 25.2994Z"/>
<path d="M32.7109 4.86282L31.5988 16.3328C31.0671 21.8166 26.1907 25.831 20.7069 25.2994L21.8189 13.8294C22.3506 8.34558 27.2271 4.33113 32.7109 4.86282Z"/>
<path d="M39.9011 5.55999L39.4186 10.5362C38.5392 19.6064 30.4735 26.2463 21.4033 25.3669L20.7069 25.2994L21.1894 20.3231C22.0688 11.2529 30.1345 4.61304 39.2047 5.49246L39.9011 5.55999Z"/>
<path d="M41.1433 37.3035L29.6733 36.1913C24.1895 35.6596 20.1752 30.7831 20.7069 25.2994L32.1767 26.4115C37.6605 26.9432 41.675 31.8197 41.1433 37.3035Z"/>
<path d="M40.4463 44.4936L35.47 44.0111C26.3998 43.1317 19.7599 35.066 20.6394 25.9958L20.7069 25.2994L25.6831 25.7819C34.7533 26.6613 41.3932 34.727 40.5138 43.7972L40.4463 44.4936Z"/>
</mask>
<path d="M0.270417 13.2953L1.06659 5.08378L-7.14491 4.28761L-7.94108 12.4991L0.270417 13.2953ZM9.23695 24.1872L8.44078 32.3987H8.44078L9.23695 24.1872ZM11.7404 14.4074L12.5366 6.19589H12.5366L11.7404 14.4074ZM0.967619 6.10509L1.76379 -2.1064L-6.4477 -2.90257L-7.24387 5.30892L0.967619 6.10509ZM15.7307 24.8168L16.527 16.6053L16.5269 16.6053L15.7307 24.8168ZM0.900096 6.80151L-7.3114 6.00534V6.00534L0.900096 6.80151ZM5.94388 6.58758L6.74005 -1.62391L5.94388 6.58758ZM20.7745 24.6029L28.986 25.3997L28.986 25.3991L20.7745 24.6029ZM13.5169 24.6022L21.7284 25.3984L22.5246 17.1869L14.3131 16.3907L13.5169 24.6022ZM1.51285 45.0387L-6.69866 44.2428L-7.49455 52.4539L0.716547 53.2502L1.51285 45.0387ZM2.62496 33.5687L-5.58653 32.7726L2.62496 33.5687ZM12.4048 36.0722L4.19333 35.276V35.276L12.4048 36.0722ZM1.99519 40.0625L-6.2163 39.2663L-6.21632 39.2665L1.99519 40.0625ZM20.0105 25.2318L20.8068 17.0203L20.8067 17.0203L20.0105 25.2318ZM20.2244 30.2756L12.013 29.4794L12.013 29.4794L20.2244 30.2756ZM2.20912 45.1062L1.41281 53.3177L1.41295 53.3177L2.20912 45.1062ZM32.7109 4.86282L40.9224 5.65899L41.7185 -2.5525L33.507 -3.34867L32.7109 4.86282ZM21.8189 13.8294L13.6074 13.0332L13.6074 13.0333L21.8189 13.8294ZM31.5988 16.3328L23.3873 15.5366L31.5988 16.3328ZM39.9011 5.55999L48.1126 6.35615L48.9088 -1.85533L40.6973 -2.65151L39.9011 5.55999ZM21.1894 20.3231L12.9779 19.5269L12.9779 19.527L21.1894 20.3231ZM39.2047 5.49246L40.0009 -2.71903H40.0009L39.2047 5.49246ZM39.4186 10.5362L47.6301 11.3324V11.3324L39.4186 10.5362ZM21.4033 25.3669L20.6068 33.5784L20.6071 33.5784L21.4033 25.3669ZM41.1433 37.3035L40.3471 45.5149L48.5586 46.3111L49.3548 38.0996L41.1433 37.3035ZM32.1767 26.4115L31.3805 34.623L31.3806 34.623L32.1767 26.4115ZM29.6733 36.1913L30.4694 27.9799H30.4694L29.6733 36.1913ZM40.4463 44.4936L39.6501 52.7051L47.8616 53.5013L48.6578 45.2898L40.4463 44.4936ZM25.6831 25.7819L24.8869 33.9934L24.887 33.9934L25.6831 25.7819ZM40.5138 43.7972L48.7253 44.5934L48.7253 44.5934L40.5138 43.7972ZM35.47 44.0111L36.2662 35.7996H36.2662L35.47 44.0111ZM20.6394 25.9958L12.4279 25.1989L12.4279 25.1996L20.6394 25.9958ZM-0.525752 21.5068L10.9442 22.6189L12.5366 6.19589L1.06659 5.08378L-0.525752 21.5068ZM21.5031 17.0879L10.0331 15.9758L8.44078 32.3987L19.9108 33.5108L21.5031 17.0879ZM10.0331 15.9758C9.08443 15.8838 8.38993 15.0401 8.48191 14.0914L-7.94108 12.4991C-8.91248 22.518 -1.57807 31.4273 8.44078 32.3987L10.0331 15.9758ZM10.9442 22.6189C11.8929 22.7109 12.5874 23.5545 12.4955 24.5032L28.9184 26.0955C29.8898 16.0767 22.5554 7.16729 12.5366 6.19589L10.9442 22.6189ZM0.171449 14.3166L5.14771 14.7991L6.74005 -1.62391L1.76379 -2.1064L0.171449 14.3166ZM12.5631 23.8061L12.4955 24.5025L28.9184 26.0962L28.986 25.3997L12.5631 23.8061ZM21.5032 17.0879L16.527 16.6053L14.9345 33.0283L19.9107 33.5108L21.5032 17.0879ZM9.11159 7.59768L9.17911 6.90126L-7.24387 5.30892L-7.3114 6.00534L9.11159 7.59768ZM16.5269 16.6053C11.9918 16.1656 8.67188 12.1328 9.11159 7.59768L-7.3114 6.00534C-8.63053 19.6106 1.32933 31.7092 14.9346 33.0283L16.5269 16.6053ZM5.14771 14.7991C9.68279 15.2388 13.0027 19.2717 12.563 23.8067L28.986 25.3991C30.3052 11.7938 20.3453 -0.304776 6.74005 -1.62391L5.14771 14.7991ZM5.30544 23.806L4.19333 35.276L20.6163 36.8684L21.7284 25.3984L5.30544 23.806ZM9.72435 45.8349L10.8365 34.3649L-5.58653 32.7726L-6.69864 44.2426L9.72435 45.8349ZM10.8365 34.3649C10.9284 33.4162 11.7721 32.7217 12.7208 32.8137L14.3131 16.3907C4.29425 15.4193 -4.61512 22.7537 -5.58653 32.7726L10.8365 34.3649ZM4.19333 35.276C4.10135 36.2247 3.25771 36.9192 2.30902 36.8272L0.716685 53.2502C10.7355 54.2216 19.6449 46.8872 20.6163 36.8684L4.19333 35.276ZM12.4955 24.5032L12.013 29.4794L28.4359 31.0718L28.9184 26.0955L12.4955 24.5032ZM3.00543 36.8948L2.30916 36.8272L0.716547 53.2502L1.41281 53.3177L3.00543 36.8948ZM9.72437 45.8347L10.2067 40.8584L-6.21632 39.2665L-6.69866 44.2428L9.72437 45.8347ZM19.2142 33.4433L19.9106 33.5108L21.5032 17.0879L20.8068 17.0203L19.2142 33.4433ZM10.2067 40.8586C10.6464 36.3236 14.6793 33.0036 19.2143 33.4433L20.8067 17.0203C7.20144 15.7012 -4.89716 25.6611 -6.2163 39.2663L10.2067 40.8586ZM12.013 29.4794C11.5732 34.0145 7.54037 37.3345 3.00529 36.8948L1.41295 53.3177C15.0182 54.6369 27.1168 44.677 28.4359 31.0718L12.013 29.4794ZM24.4994 4.06665L23.3873 15.5366L39.8103 17.129L40.9224 5.65899L24.4994 4.06665ZM28.9184 26.0954L30.0304 14.6254L13.6074 13.0333L12.4954 24.5033L28.9184 26.0954ZM30.0304 14.6255C30.1224 13.6768 30.966 12.9823 31.9147 13.0743L33.507 -3.34867C23.4882 -4.32008 14.5788 3.01433 13.6074 13.0332L30.0304 14.6255ZM23.3873 15.5366C23.2953 16.4855 22.4517 17.1798 21.5031 17.0879L19.9108 33.5108C29.9298 34.4823 38.8389 27.1477 39.8103 17.129L23.3873 15.5366ZM31.6896 4.76382L31.2071 9.74008L47.6301 11.3324L48.1126 6.35615L31.6896 4.76382ZM22.1998 17.1554L21.5034 17.0879L19.9105 33.5108L20.6068 33.5784L22.1998 17.1554ZM28.9184 26.0954L29.4009 21.1192L12.9779 19.527L12.4954 24.5033L28.9184 26.0954ZM38.4085 13.704L39.1049 13.7715L40.6973 -2.65151L40.0009 -2.71903L38.4085 13.704ZM29.4009 21.1193C29.8406 16.5842 33.8734 13.2642 38.4085 13.704L40.0009 -2.71903C26.3956 -4.03817 14.297 5.9217 12.9779 19.5269L29.4009 21.1193ZM31.2071 9.74007C30.7674 14.2752 26.7345 17.5951 22.1995 17.1554L20.6071 33.5784C34.2124 34.8975 46.311 24.9377 47.6301 11.3324L31.2071 9.74007ZM41.9394 29.092L30.4694 27.9799L28.8771 44.4028L40.3471 45.5149L41.9394 29.092ZM19.9107 33.5108L31.3805 34.623L32.9729 18.2L21.5031 17.0879L19.9107 33.5108ZM31.3806 34.623C32.3293 34.715 33.0238 35.5586 32.9318 36.5073L49.3548 38.0996C50.3262 28.0808 42.9918 19.1714 32.9729 18.2L31.3806 34.623ZM30.4694 27.9799C29.521 27.8879 28.8264 27.0445 28.9184 26.0955L12.4955 24.5032C11.5241 34.5218 18.858 43.4314 28.8771 44.4028L30.4694 27.9799ZM41.2424 36.2821L36.2662 35.7996L34.6738 52.2226L39.6501 52.7051L41.2424 36.2821ZM28.8508 26.7927L28.9184 26.0962L12.4955 24.5025L12.4279 25.1989L28.8508 26.7927ZM19.9107 33.5108L24.8869 33.9934L26.4794 17.5704L21.5032 17.0879L19.9107 33.5108ZM32.3023 43.001L32.2348 43.6974L48.6578 45.2898L48.7253 44.5934L32.3023 43.001ZM24.887 33.9934C29.4221 34.4331 32.742 38.4659 32.3023 43.001L48.7253 44.5934C50.0444 30.9881 40.0846 18.8895 26.4793 17.5704L24.887 33.9934ZM36.2662 35.7996C31.7311 35.3599 28.4111 31.327 28.8508 26.792L12.4279 25.1996C11.1087 38.8049 21.0686 50.9035 34.6738 52.2226L36.2662 35.7996Z" fill="#73895D" mask="url(#path-1-inside-1_1_509)"/>
<path opacity="0.9" d="M69.5104 36.46L67.2304 36.42C66.9104 36.42 66.5904 36.42 66.2704 36.42L58.9904 36.78C58.5904 36.78 58.3904 36.6467 58.3904 36.38C58.3904 36.3 58.4304 36.1133 58.5104 35.82C58.7771 35.2067 58.9638 33.26 59.0704 29.98C59.2038 26.7 59.2704 23.7133 59.2704 21.02C59.2704 18.3 59.2171 16.1 59.1104 14.42C58.9504 11.8867 58.6838 10.3667 58.3104 9.86C58.0171 9.48667 57.8704 9.24667 57.8704 9.14C57.8704 8.71333 58.5904 8.34 60.0304 8.02C61.4704 7.7 62.4971 7.54 63.1104 7.54C63.7504 7.54 64.1504 7.58 64.3104 7.66C64.4704 7.71333 64.5504 7.84667 64.5504 8.06C64.5504 8.27333 64.4971 8.95333 64.3904 10.1C64.1238 13.4867 63.9904 17.4333 63.9904 21.94C63.9904 26.42 64.0971 30.0067 64.3104 32.7C64.3104 32.9933 64.5638 33.2467 65.0704 33.46C65.5771 33.6733 66.2038 33.78 66.9504 33.78C69.5638 33.78 70.8704 31.7667 70.8704 27.74C70.8704 26.62 70.8038 25.9267 70.6704 25.66C70.5638 25.3933 70.5104 25.22 70.5104 25.14C70.5104 24.8733 70.6971 24.74 71.0704 24.74C71.3638 24.74 71.7504 24.8867 72.2304 25.18C72.7371 25.4733 73.1504 25.8467 73.4704 26.3C73.7904 26.7267 74.0838 27.42 74.3504 28.38C74.6171 29.3133 74.7504 30.42 74.7504 31.7C74.7504 34.8733 74.3638 36.46 73.5904 36.46C72.2304 36.46 70.8704 36.46 69.5104 36.46ZM80.042 26.34L80.082 27.34C80.082 27.5 80.1887 27.58 80.402 27.58C81.2553 27.5 82.002 27.2867 82.642 26.94C83.282 26.5667 83.762 26.1533 84.082 25.7C84.722 24.7133 85.0687 23.86 85.122 23.14L85.162 22.66C85.162 21.22 84.5887 20.5 83.442 20.5C82.5887 20.5 81.8953 20.8733 81.362 21.62C80.482 22.7933 80.042 24.3667 80.042 26.34ZM88.762 31.66C88.762 32.6733 88.5487 33.5667 88.122 34.34C87.722 35.0867 87.2553 35.6467 86.722 36.02C86.2153 36.3667 85.6153 36.6467 84.922 36.86C84.042 37.1267 83.202 37.26 82.402 37.26C80.162 37.26 78.5087 36.42 77.442 34.74C76.3753 33.06 75.842 30.9267 75.842 28.34C75.842 25.7267 76.4953 23.4067 77.802 21.38C79.1353 19.3533 81.122 18.34 83.762 18.34C86.162 18.34 87.7887 19.18 88.642 20.86C88.9887 21.5 89.162 22.1133 89.162 22.7C89.162 23.26 89.1353 23.7133 89.082 24.06C89.0287 24.38 88.842 24.8733 88.522 25.54C88.202 26.2067 87.7753 26.8067 87.242 27.34C86.7087 27.8733 85.8687 28.38 84.722 28.86C83.5753 29.34 82.2287 29.66 80.682 29.82C80.4687 29.82 80.362 29.9133 80.362 30.1C80.362 30.34 80.442 30.7 80.602 31.18C80.7887 31.6333 80.9887 32.02 81.202 32.34C81.7887 33.0867 82.6553 33.46 83.802 33.46C84.9487 33.46 85.922 33.0867 86.722 32.34C87.1487 31.94 87.4953 31.4467 87.762 30.86C87.8687 30.6467 88.002 30.54 88.162 30.54C88.3487 30.54 88.4953 30.6867 88.602 30.98C88.7087 31.2733 88.762 31.5 88.762 31.66ZM103.782 24.5L103.702 29.62C103.702 33.1667 104.088 35.3 104.862 36.02C104.968 36.1267 105.022 36.2467 105.022 36.38C105.022 36.78 104.155 36.98 102.422 36.98C100.715 36.98 99.8083 36.4733 99.7017 35.46C99.675 35.22 99.6617 34.7267 99.6617 33.98L99.8217 27.58C99.8217 27.3933 99.715 27.3 99.5017 27.3C98.2217 27.3 97.0217 27.66 95.9017 28.38C94.7817 29.1 94.2217 30.02 94.2217 31.14C94.2217 31.7267 94.3817 32.22 94.7017 32.62C95.0217 33.02 95.4083 33.22 95.8617 33.22C96.3417 33.22 96.7283 33.1267 97.0217 32.94C97.3417 32.7533 97.5283 32.6467 97.5817 32.62C98.035 32.6733 98.2617 33.1533 98.2617 34.06C98.2617 34.94 97.8483 35.66 97.0217 36.22C96.195 36.7533 95.3283 37.02 94.4217 37.02C93.515 37.02 92.7283 36.86 92.0617 36.54C91.4217 36.22 90.955 35.86 90.6617 35.46C90.3683 35.06 90.1283 34.6067 89.9417 34.1C89.755 33.4867 89.6617 32.9533 89.6617 32.5C89.6617 30.6333 90.2483 29.14 91.4217 28.02C92.595 26.9 94.1017 26.1 95.9417 25.62C98.3683 25.14 99.635 24.7 99.7417 24.3C99.8217 24.0067 99.8617 23.5133 99.8617 22.82C99.8617 21.4067 99.1417 20.7 97.7017 20.7C97.0883 20.7 96.5417 20.9 96.0617 21.3C95.5817 21.6733 95.3417 22.1533 95.3417 22.74L95.5817 23.7C95.5283 24.1533 95.0483 24.42 94.1417 24.5L93.7017 24.54C92.9017 24.54 92.2617 24.34 91.7817 23.94C91.3283 23.54 91.1017 23.0067 91.1017 22.34C91.1017 21.9133 91.235 21.4467 91.5017 20.94C91.795 20.4067 92.155 19.98 92.5817 19.66C93.0083 19.34 93.6617 19.06 94.5417 18.82C95.4483 18.5533 96.315 18.42 97.1417 18.42C97.9683 18.42 98.6083 18.4467 99.0617 18.5C99.515 18.5533 100.128 18.6867 100.902 18.9C101.702 19.0867 102.355 19.46 102.862 20.02C103.395 20.58 103.675 21.18 103.702 21.82C103.755 22.4333 103.782 23.3267 103.782 24.5ZM111.403 26.5L111.603 34.5C111.603 36.18 111.376 37.66 110.923 38.94C110.496 40.2467 109.963 41.22 109.323 41.86C108.016 43.22 106.87 43.9933 105.883 44.18L105.203 44.34C104.803 44.34 104.603 44.22 104.603 43.98L104.803 43.38C106.75 40.6867 107.723 34.0733 107.723 23.54C107.723 22.58 107.71 21.86 107.683 21.38C107.123 21.38 106.563 21.42 106.003 21.5H105.963C105.67 21.5 105.523 21.3533 105.523 21.06L105.643 19.54C105.67 19.3 105.856 19.18 106.203 19.18H107.643V16.5L107.723 12.7C107.723 12.5133 107.75 12.3133 107.803 12.1C107.883 11.86 108.176 11.5133 108.683 11.06C109.19 10.58 109.936 10.1533 110.923 9.78C111.91 9.38 112.75 9.18 113.443 9.18C114.163 9.18 114.523 9.39333 114.523 9.82C114.523 9.98 114.403 10.1133 114.163 10.22C113.39 10.46 112.75 11.1533 112.243 12.3C111.763 13.42 111.523 15.34 111.523 18.06V19.18C112.883 19.1267 113.776 19.06 114.203 18.98C114.39 18.98 114.483 19.14 114.483 19.46C114.483 19.78 114.336 20.18 114.043 20.66C113.776 21.1133 113.43 21.3533 113.003 21.38C112.603 21.38 112.096 21.3667 111.483 21.34C111.43 23.3667 111.403 25.0867 111.403 26.5Z" fill="#020D19"/>
</svg>
